<svg width="64" height="64" viewBox="0 0 64 64" fill="none" xmlns="http://www.w3.org/2000/svg">
<path d="M30.5366 37.9072C27.2068 37.9072 24.3904 37.9072 24.3904 37.9072L26.4846 45.218L22.3221 57.1138C21.7832 58.6543 22.595 60.34 24.1354 60.8791C25.6762 61.4181 27.3618 60.6058 27.9007 59.0658L32.3734 46.2833C32.5752 45.7062 32.5932 45.0811 32.4249 44.4934L30.5366 37.9072Z" fill="#C6DE16"/>
<path d="M38.3573 37.9072C36.5205 37.9072 34.0526 37.9072 31.7024 37.9072L35.1298 44.6267L34.6855 57.9923C34.6313 59.6234 35.9097 60.9896 37.5407 61.0439C37.5742 61.045 37.6074 61.0456 37.6407 61.0456C39.2273 61.0456 40.5393 59.7863 40.5924 58.1887L41.0619 44.0611C41.0785 43.5613 40.9681 43.0658 40.7409 42.6203L38.3573 37.9072Z" fill="#C6DE16"/>
<path d="M35.905 13.0537C38.6942 13.0537 40.9553 10.7926 40.9553 8.00339C40.9553 5.21421 38.6942 2.95312 35.905 2.95312C33.1158 2.95312 30.8547 5.21421 30.8547 8.00339C30.8547 10.7926 33.1158 13.0537 35.905 13.0537Z" fill="#C6DE16"/>
<path d="M13.8055 35.6481H33.0889L28.866 33.6015C28.4806 33.4147 28.1276 33.1807 27.8109 32.9092H13.8055C8.13134 32.9092 3.51489 37.5255 3.51489 43.1998V58.3071C2.3896 58.3071 2.48047 58.3071 1.36941 58.3071C0.613173 58.3071 0 58.9202 0 59.6765C0 60.4327 0.613173 61.0459 1.36941 61.0459H8.39934C9.15558 61.0459 9.76875 60.4327 9.76875 59.6765C9.76875 58.9202 9.15558 58.3071 8.39934 58.3071C7.27809 58.3071 7.36505 58.3071 6.25386 58.3071V43.2001C6.254 39.0359 9.64159 35.6481 13.8055 35.6481Z" fill="#C6DE16"/>
<path d="M41.09 31.2969L33.3028 27.5226L32.0204 18.0949L35.175 25.7612L37.6564 26.9639L38.8648 19.0182C39.1157 17.3682 37.9815 15.8274 36.3317 15.5765L29.546 14.5445C27.8962 14.2936 26.3553 15.4278 26.1043 17.0776L24.0405 30.6492H26.3257C26.123 29.9977 26.1082 29.5799 26.1353 29.2971L27.1098 19.1155L28.526 29.526C28.6391 30.3562 29.1598 31.0747 29.9137 31.4401C35.463 34.1296 32.2639 32.5791 38.9078 35.7993C40.0433 36.3498 41.4434 35.9683 42.1254 34.8633C42.9091 33.5923 42.4158 31.9398 41.09 31.2969Z" fill="#C6DE16"/>
<path d="M62.6304 58.3071C61.4074 58.3071 61.6246 58.3071 60.4229 58.3071V43.1998C60.4229 37.5255 55.8065 32.9092 50.1322 32.9092H44.8578C44.9784 33.8152 44.848 34.7639 44.4287 35.6481H50.1322C54.2963 35.6481 57.684 39.0359 57.684 43.2V58.3072C56.3781 58.3072 56.0879 58.3072 56.0342 58.3072C56.0265 58.3072 56.0233 58.3072 56.023 58.3072C55.9933 58.3072 55.8938 58.3072 55.6007 58.3072C54.8444 58.3072 54.2312 58.9204 54.2312 59.6766C54.2312 60.4329 54.8444 61.046 55.6007 61.046H62.6306C63.3868 61.046 64 60.4329 64 59.6766C64 58.9202 63.3867 58.3071 62.6304 58.3071Z" fill="#C6DE16"/>
</svg>
