<svg width="64" height="64" viewBox="0 0 64 64" fill="none" xmlns="http://www.w3.org/2000/svg">
<path d="M23.4566 17.7083C20.6256 14.8773 20.6256 10.2873 23.4566 7.45629C26.2876 4.62525 30.8776 4.62525 33.7088 7.45629L40.5435 14.291C43.3744 17.122 43.3744 21.712 40.5435 24.5431C37.7123 27.3741 33.1224 27.3741 30.2912 24.5431L23.4566 17.7083Z" stroke="#C6DE16" stroke-width="3"/>
<path d="M37.3333 10.667C37.3333 10.667 36.7331 13.7807 33.2565 17.2574C29.7797 20.734 26.6667 21.3337 26.6667 21.3337" stroke="#C6DE16" stroke-width="3"/>
<path d="M10.6667 57.0358H16.6932C19.3888 57.0358 22.1134 57.3166 24.7369 57.8571C29.3776 58.8131 34.2635 58.9289 38.9517 58.1702M36.4704 49.3793C36.7899 49.3422 37.096 49.2998 37.3883 49.2531C39.8187 48.8654 41.8587 47.5667 43.7264 46.1558L48.5456 42.5155C50.2445 41.2321 52.7661 41.2318 54.4653 42.5147C55.9952 43.6699 56.4629 45.5718 55.4957 47.1219C54.368 48.9299 52.7789 51.2427 51.2531 52.6558M36.4704 49.3793C36.3741 49.3905 36.2768 49.4011 36.1781 49.4113M36.4704 49.3793C36.8592 49.2961 37.2451 49.0561 37.6075 48.7401C39.3227 47.243 39.4309 44.7201 37.9427 43.0483C37.5976 42.6606 37.1933 42.3371 36.7443 42.0691C29.2845 37.6198 17.6785 41.0086 10.6667 45.9811M36.4704 49.3793C36.3731 49.4001 36.2755 49.4113 36.1781 49.4113M36.1781 49.4113C34.7824 49.5545 33.1499 49.5915 31.3381 49.4203" stroke="#C6DE16" stroke-width="3" stroke-linecap="round"/>
</svg>
